<?xml version="1.0" encoding="UTF-8" standalone="no"?>
<!-- Created with Inkscape (http://www.inkscape.org/) -->

<svg
   width="24mm"
   height="29.6mm"
   viewBox="0 0 24 29.6"
   version="1.1"
   id="svg5"
   inkscape:version="1.1.1 (3bf5ae0d25, 2021-09-20)"
   sodipodi:docname="tab.svg"
   xmlns:inkscape="http://www.inkscape.org/namespaces/inkscape"
   xmlns:sodipodi="http://sodipodi.sourceforge.net/DTD/sodipodi-0.dtd"
   xmlns="http://www.w3.org/2000/svg"
   xmlns:svg="http://www.w3.org/2000/svg">
  <sodipodi:namedview
     id="namedview7"
     pagecolor="#505050"
     bordercolor="#eeeeee"
     borderopacity="0"
     inkscape:pageshadow="0"
     inkscape:pageopacity="0"
     inkscape:pagecheckerboard="0"
     inkscape:document-units="mm"
     showgrid="false"
     inkscape:zoom="2.096401"
     inkscape:cx="179.59351"
     inkscape:cy="154.31208"
     inkscape:window-width="1920"
     inkscape:window-height="1017"
     inkscape:window-x="3832"
     inkscape:window-y="-8"
     inkscape:window-maximized="1"
     inkscape:current-layer="g839" />
  <defs
     id="defs2" />
  <g
     inkscape:label="Calque 1"
     inkscape:groupmode="layer"
     id="layer1">
    <g
       id="g839"
       transform="matrix(0.26458333,0,0,0.26458333,148.06156,74.32245)">
      <path
         d="m -478.23531,-279.40087 h -73.05345 a 6.5306664,6.5306664 0 0 0 -6.53067,6.53067 v 62.35733 a 6.5306664,6.5306664 0 0 0 6.53067,6.53066 h 73.05345 a 6.5306664,6.5306664 0 0 0 6.54982,-6.53066 v -62.35733 a 6.5306664,6.5306664 0 0 0 -6.54982,-6.53067 z m 0.80436,68.888 a 0.78521209,0.78521209 0 0 1 -0.78521,0.78521 h -73.0726 a 0.78521209,0.78521209 0 0 1 -0.78522,-0.78521 v -62.35733 a 0.78521209,0.78521209 0 0 1 0.78522,-0.78522 h 47.04569 v 20.25273 a 2.4705454,2.4705454 0 0 0 2.47055,2.47054 h 24.34157 z"
         id="path824"
         style="stroke-width:0.957576" />
    </g>
  </g>
</svg>
